<svg width="37" height="84" viewBox="0 0 37 84" xmlns="http://www.w3.org/2000/svg" xmlns:xlink="http://www.w3.org/1999/xlink"><defs><path d="M0 24.228v-5.844c0-10.137 8.247-18.384 18.384-18.384s18.384 8.247 18.384 18.384v52.911c0 6.703-5.454 12.157-12.156 12.157-6.703 0-12.156-5.454-12.156-12.157v-34.463h6.405v34.463c0 3.172 2.58 5.751 5.751 5.751 3.17 0 5.75-2.579 5.75-5.751v-52.911c0-6.605-5.373-11.978-11.978-11.978-6.605 0-11.978 5.373-11.978 11.978v5.844h-6.406z" id="a"/><filter x="-4.1%" y="-1.8%" width="108.2%" height="103.6%" filterUnits="objectBoundingBox" id="b"><feGaussianBlur stdDeviation="1.5" in="SourceAlpha" result="shadowBlurInner1"/><feOffset in="shadowBlurInner1" result="shadowOffsetInner1"/><feComposite in="shadowOffsetInner1" in2="SourceAlpha" operator="arithmetic" k2="-1" k3="1" result="shadowInnerInner1"/><feColorMatrix values="0 0 0 0 0 0 0 0 0 0 0 0 0 0 0 0 0 0 0.5 0" in="shadowInnerInner1"/></filter></defs><g transform="rotate(-360 18.384 41.726)" fill="none"><use fill="#C8C8C8" xlink:href="#a"/><use fill="#000" filter="url(#b)" xlink:href="#a"/></g></svg>
